<svg width="79" height="60" viewBox="0 0 79 60" fill="none" xmlns="http://www.w3.org/2000/svg">
<path d="M9.81369 59.3105H0.0546875V42.9348H3.74568V56.3187H9.81369V59.3105Z" fill="#030303"/>
<path d="M21.8472 59.3105H12.0195V42.9348H21.47V45.9382H15.7105V49.581H21.0699V52.5729H15.7105V56.3187H21.8472V59.3105Z" fill="#030303"/>
<path d="M28.1656 45.9372V56.3177H29.9939C31.5939 56.3177 32.8488 55.838 33.7592 54.8789C34.6697 53.9195 35.125 52.614 35.125 50.962C35.125 49.4012 34.6736 48.1739 33.7708 47.2792C32.8679 46.3845 31.6012 45.9372 29.9711 45.9372H28.1656ZM24.4746 59.3096V42.9341H30.2797C36.1 42.9341 39.0102 45.5948 39.0102 50.9164C39.0102 53.4667 38.216 55.5031 36.6276 57.0258C35.0394 58.5483 32.9232 59.3096 30.2797 59.3096H24.4746Z" fill="#030303"/>
<path d="M45.3742 59.4658C44.5664 59.4658 43.8808 59.282 43.3173 58.9145C42.7533 58.5471 42.3596 58.0435 42.1357 57.4042L43.3232 56.709C43.659 57.6519 44.3547 58.1234 45.4102 58.1234C45.93 58.1234 46.3199 58.0214 46.5798 57.8176C46.8394 57.6138 46.9695 57.3483 46.9695 57.0206C46.9695 56.6773 46.8293 56.4155 46.5497 56.2357C46.2698 56.0556 45.7741 55.8577 45.0624 55.642C44.6626 55.5224 44.3387 55.4105 44.0908 55.3066C43.843 55.2027 43.5812 55.0568 43.3051 54.869C43.0292 54.6814 42.8234 54.4476 42.6875 54.1679C42.5515 53.8885 42.4836 53.5606 42.4836 53.1851C42.4836 52.4419 42.7475 51.8527 43.2752 51.417C43.803 50.9815 44.4387 50.7638 45.1826 50.7638C45.854 50.7638 46.4417 50.9277 46.9455 51.255C47.4493 51.5829 47.8371 52.0344 48.109 52.6097L46.9455 53.2809C46.5937 52.4981 46.0059 52.1063 45.1826 52.1063C44.7823 52.1063 44.4627 52.2003 44.2228 52.3881C43.9829 52.5759 43.8629 52.8297 43.8629 53.1491C43.8629 53.4607 43.9848 53.7063 44.2289 53.8864C44.4725 54.0659 44.9145 54.2558 45.5542 54.4556C45.874 54.5595 46.1078 54.6375 46.256 54.6894C46.4036 54.7411 46.6115 54.8232 46.8794 54.935C47.1473 55.0469 47.3491 55.1588 47.4855 55.2707C47.6212 55.3825 47.7673 55.5224 47.9232 55.6902C48.0791 55.8577 48.1889 56.0498 48.2529 56.2655C48.3169 56.4813 48.3489 56.7252 48.3489 56.9967C48.3489 57.756 48.0749 58.357 47.5271 58.8005C46.9794 59.2442 46.2618 59.4658 45.3742 59.4658Z" fill="#030303"/>
<path d="M54.8976 50.9202H56.277V59.3105H54.8976V55.6787H51.2993V59.3105H49.9199V50.9202H51.2993V54.3602H54.8976V50.9202Z" fill="#030303"/>
<path d="M60.2175 57.2665C60.7893 57.8378 61.4951 58.1234 62.3345 58.1234C63.1741 58.1234 63.8796 57.8378 64.4516 57.2665C65.0233 56.6951 65.3091 55.9781 65.3091 55.1151C65.3091 54.2518 65.0233 53.5348 64.4516 52.9632C63.8796 52.3923 63.1741 52.1063 62.3345 52.1063C61.4951 52.1063 60.7893 52.3923 60.2175 52.9632C59.6456 53.5348 59.3601 54.2518 59.3601 55.1151C59.3601 55.9781 59.6456 56.6951 60.2175 57.2665ZM65.4231 58.2014C64.5793 59.0444 63.5499 59.4658 62.3345 59.4658C61.119 59.4658 60.0896 59.0444 59.246 58.2014C58.4022 57.3584 57.9805 56.3297 57.9805 55.1151C57.9805 53.9005 58.4022 52.8718 59.246 52.0285C60.0896 51.1855 61.119 50.7638 62.3345 50.7638C63.5499 50.7638 64.5793 51.1855 65.4231 52.0285C66.2667 52.8718 66.6887 53.9005 66.6887 55.1151C66.6887 56.3297 66.2667 57.3584 65.4231 58.2014Z" fill="#030303"/>
<path d="M69.8068 59.3105L67.4316 50.9202H68.883L70.6462 57.4767L72.5535 50.9202H73.8249L75.72 57.4767L77.4832 50.9202H78.9345L76.5596 59.3105H74.9644L73.1892 53.1856L71.4018 59.3105H69.8068Z" fill="#030303"/>
<path d="M35.0063 32.6152H19.9373V7.93048L35.0063 12.4023V32.6152ZM14.3213 0.0832863V37.8828H39.3838V9.14038L14.3213 0.0832863Z" fill="#00BDFF"/>
<path d="M11.9659 5.55392L6.60156 3.61522V37.8828H11.9659V5.55392Z" fill="#23EA00"/>
<path d="M4.62021 11.3042L0 9.71078V37.8828H4.62021V11.3042Z" fill="#FF3131"/>
</svg>
